<?xml version="1.0" encoding="UTF-8"?>
<svg id="Capa_2" data-name="Capa 2" xmlns="http://www.w3.org/2000/svg" xmlns:xlink="http://www.w3.org/1999/xlink" viewBox="0 0 2564.13 445.97">
  <defs>
    <style>
      .cls-1 {
        stroke: #ffcb05;
      }

      .cls-1, .cls-2, .cls-3, .cls-4, .cls-5 {
        fill: none;
      }

      .cls-1, .cls-2, .cls-4, .cls-5 {
        stroke-linecap: round;
        stroke-miterlimit: 10;
        stroke-width: 5px;
      }

      .cls-2 {
        stroke: #fa0;
      }

      .cls-6 {
        fill: #ffcb05;
      }

      .cls-4 {
        stroke: #3c3a3c;
      }

      .cls-7 {
        fill: #3c3a3c;
      }

      .cls-8 {
        fill: #fa0;
      }

      .cls-9 {
        clip-path: url(#clippath);
      }

      .cls-10 {
        fill: #b9bece;
      }

      .cls-5 {
        stroke: #b9bece;
      }
    </style>
    <clipPath id="clippath">
      <rect class="cls-3" x="795.81" y="-678.21" width="328.37" height="1920" transform="translate(1241.79 -678.21) rotate(90)"/>
    </clipPath>
  </defs>
  <g id="decoración">
    <g class="cls-9">
      <g>
        <line class="cls-2" x1="567.48" y1="82.34" x2="567.43" y2="167.38"/>
        <line class="cls-2" x1="231.33" y1="56.7" x2="231.28" y2="141.73"/>
        <line class="cls-1" x1="197.58" y1="286.76" x2="197.67" y2="194.5"/>
        <line class="cls-2" x1="197.98" y1="86.2" x2="197.93" y2="171.24"/>
        <line class="cls-1" x1="298.82" y1="106.2" x2="298.81" y2="134.54"/>
        <line class="cls-4" x1="567.41" y1="211.9" x2="567.39" y2="240.24"/>
        <line class="cls-4" x1="695.87" y1="242.46" x2="695.85" y2="270.81"/>
        <circle class="cls-7" cx="332.63" cy="139.85" r="7.2"/>
        <line class="cls-4" x1="63.34" y1="128.39" x2="63.28" y2="241.77"/>
        <circle class="cls-8" cx="567.53" cy="190.6" r="7.2"/>
        <line class="cls-5" x1="28.68" y1="161.59" x2="28.7" y2="133.24"/>
        <circle class="cls-10" cx="28.59" cy="181.05" r="7.2"/>
        <circle class="cls-6" cx="433.1" cy="135.67" r="7.2"/>
        <line class="cls-1" x1="29.51" y1="201.58" x2="29.47" y2="286.61"/>
        <circle class="cls-8" cx="130.03" cy="140.52" r="7.2"/>
        <line class="cls-1" x1="990.02" y1="207.72" x2="990.07" y2="292.75"/>
        <line class="cls-5" x1="97.07" y1="56.96" x2="97.03" y2="142"/>
        <g>
          <circle class="cls-6" cx="533.7" cy="139.19" r="7.2"/>
          <circle class="cls-6" cx="533.69" cy="161.29" r="7.2"/>
        </g>
        <line class="cls-1" x1="695.92" y1="136.23" x2="695.88" y2="221.26"/>
        <line class="cls-2" x1="830.43" y1="41.65" x2="830.37" y2="155.03"/>
        <line class="cls-2" x1="729.52" y1="119.87" x2="729.49" y2="176.56"/>
        <line class="cls-4" x1="628.78" y1="127.76" x2="628.77" y2="156.11"/>
        <circle class="cls-7" cx="863.59" cy="140.13" r="7.2"/>
        <circle class="cls-6" cx="729.48" cy="201.42" r="7.2"/>
        <circle class="cls-6" cx="763.12" cy="135.84" r="7.2"/>
        <g>
          <circle class="cls-10" cx="63.12" cy="259.45" r="7.2"/>
          <circle class="cls-10" cx="63.11" cy="281.55" r="7.2"/>
        </g>
        <g>
          <circle class="cls-6" cx="897.61" cy="334.89" r="7.2"/>
          <circle class="cls-6" cx="897.63" cy="312.79" r="7.2"/>
        </g>
        <line class="cls-1" x1="164.17" y1="163.73" x2="164.08" y2="333.79"/>
        <line class="cls-5" x1="399.19" y1="262.17" x2="399.31" y2="135.51"/>
        <line class="cls-2" x1="231.26" y1="185.17" x2="231.23" y2="241.86"/>
        <line class="cls-5" x1="332.24" y1="159.57" x2="332.2" y2="244.61"/>
        <line class="cls-2" x1="533.92" y1="186.16" x2="533.83" y2="278.42"/>
        <line class="cls-5" x1="500.31" y1="134.06" x2="500.27" y2="219.09"/>
        <line class="cls-5" x1="130.52" y1="185.33" x2="130.47" y2="270.36"/>
        <line class="cls-4" x1="601.16" y1="131.23" x2="601.07" y2="301.3"/>
        <line class="cls-4" x1="365.81" y1="189.41" x2="365.72" y2="307.61"/>
        <line class="cls-2" x1="264.92" y1="275.47" x2="264.84" y2="354.12"/>
        <line class="cls-2" x1="96.99" y1="205.96" x2="96.96" y2="262.65"/>
        <line class="cls-1" x1="365.78" y1="270.05" x2="365.75" y2="327.3"/>
        <line class="cls-1" x1="466.71" y1="144.94" x2="466.62" y2="269.62"/>
        <line class="cls-2" x1="466.65" y1="212.93" x2="466.62" y2="269.62"/>
        <line class="cls-5" x1="567.41" y1="254.43" x2="567.38" y2="311.12"/>
        <line class="cls-1" x1="298.8" y1="159.77" x2="298.71" y2="329.84"/>
        <line class="cls-2" x1="298.8" y1="159.77" x2="298.77" y2="216.46"/>
        <line class="cls-4" x1="433.07" y1="183.78" x2="433.01" y2="297.16"/>
        <line class="cls-2" x1="601.16" y1="131.23" x2="601.13" y2="187.92"/>
        <line class="cls-1" x1="264.97" y1="172.57" x2="265.06" y2="2.5"/>
        <g>
          <circle class="cls-6" cx="264.95" cy="219.18" r="7.2"/>
          <circle class="cls-6" cx="264.96" cy="197.08" r="7.2"/>
        </g>
        <g>
          <circle class="cls-6" cx="1057.92" cy="222.68" r="7.2"/>
          <circle class="cls-6" cx="1057.94" cy="200.58" r="7.2"/>
        </g>
        <line class="cls-4" x1="97.02" y1="159.06" x2="97.01" y2="187.4"/>
        <line class="cls-4" x1="129.91" y1="302.5" x2="129.9" y2="343.81"/>
        <line class="cls-1" x1="399.19" y1="262.17" x2="399.22" y2="205.48"/>
        <line class="cls-4" x1="164.21" y1="78.84" x2="164.18" y2="146.38"/>
        <circle class="cls-8" cx="332.18" cy="270.91" r="7.2"/>
        <circle class="cls-10" cx="231.27" cy="160.82" r="7.2"/>
        <circle class="cls-6" cx="433.08" cy="160.63" r="7.2"/>
        <circle class="cls-7" cx="533.83" cy="300.62" r="7.2"/>
        <circle class="cls-6" cx="398.99" cy="281.78" r="7.2"/>
        <circle class="cls-10" cx="990.16" cy="312.5" r="7.2"/>
        <g>
          <circle class="cls-8" cx="365.84" cy="139.82" r="7.2"/>
          <circle class="cls-8" cx="365.82" cy="161.91" r="7.2"/>
        </g>
        <g>
          <circle class="cls-6" cx="502.24" cy="250.56" r="7.2"/>
          <circle class="cls-6" cx="502.23" cy="272.66" r="7.2"/>
        </g>
        <g>
          <line class="cls-5" x1="231.59" y1="241.94" x2="262.15" y2="272.53"/>
          <circle class="cls-6" cx="264.55" cy="274.53" r="7.2"/>
          <circle class="cls-6" cx="230.95" cy="241.77" r="7.2"/>
        </g>
        <g>
          <line class="cls-5" x1="96.96" y1="268.76" x2="127.51" y2="299.34"/>
          <circle class="cls-6" cx="129.91" cy="301.35" r="7.2"/>
          <circle class="cls-6" cx="96.32" cy="268.58" r="7.2"/>
        </g>
        <circle class="cls-6" cx="197.57" cy="313.75" r="7.2"/>
        <circle class="cls-6" cx="130.02" cy="160.77" r="7.2"/>
        <line class="cls-2" x1="796.94" y1="133.27" x2="796.82" y2="262.76"/>
        <line class="cls-5" x1="863.96" y1="159.86" x2="863.91" y2="244.89"/>
        <line class="cls-2" x1="662.3" y1="158.63" x2="662.21" y2="270.34"/>
        <line class="cls-5" x1="628.65" y1="174.04" x2="628.61" y2="259.07"/>
        <line class="cls-4" x1="830.33" y1="224.67" x2="830.24" y2="342.86"/>
        <line class="cls-1" x1="830.3" y1="305.62" x2="830.27" y2="362.31"/>
        <line class="cls-1" x1="729.47" y1="220.99" x2="729.4" y2="336.84"/>
        <line class="cls-2" x1="729.43" y1="281.76" x2="729.4" y2="338.45"/>
        <line class="cls-1" x1="897.4" y1="140.63" x2="897.31" y2="290.6"/>
        <line class="cls-2" x1="897.4" y1="140.63" x2="897.37" y2="184.35"/>
        <line class="cls-4" x1="763.1" y1="183.95" x2="763.04" y2="297.33"/>
        <line class="cls-1" x1="796.94" y1="133.27" x2="796.91" y2="189.95"/>
        <circle class="cls-8" cx="863.9" cy="271.19" r="7.2"/>
        <circle class="cls-6" cx="763.11" cy="160.8" r="7.2"/>
        <circle class="cls-7" cx="662.3" cy="138.45" r="7.2"/>
        <circle class="cls-6" cx="629.99" cy="285.34" r="7.2"/>
        <line class="cls-5" x1="956.37" y1="89.49" x2="956.32" y2="174.52"/>
        <line class="cls-2" x1="990.33" y1="82.56" x2="990.28" y2="167.6"/>
        <line class="cls-1" x1="1292.81" y1="132.42" x2="1292.76" y2="217.45"/>
        <line class="cls-5" x1="1058.05" y1="120.01" x2="1058.02" y2="176.7"/>
        <circle class="cls-10" cx="990.16" cy="190.82" r="7.2"/>
        <circle class="cls-6" cx="1292.75" cy="236.53" r="7.2"/>
        <g>
          <circle class="cls-6" cx="1024.07" cy="145.41" r="7.2"/>
          <circle class="cls-6" cx="1024.06" cy="167.51" r="7.2"/>
        </g>
        <line class="cls-4" x1="928.99" y1="127.92" x2="928.97" y2="156.27"/>
        <circle class="cls-8" cx="796.94" cy="291.98" r="7.2"/>
        <line class="cls-2" x1="1023.8" y1="192.38" x2="1023.71" y2="258.71"/>
        <line class="cls-4" x1="956.56" y1="194.44" x2="956.47" y2="364.51"/>
        <line class="cls-2" x1="956.56" y1="194.44" x2="956.53" y2="251.13"/>
        <circle class="cls-6" cx="1292.74" cy="261.49" r="7.2"/>
        <circle class="cls-7" cx="1023.69" cy="277.02" r="7.2"/>
        <line class="cls-5" x1="929.07" y1="174.19" x2="929.02" y2="259.23"/>
        <circle class="cls-6" cx="927.61" cy="285.5" r="7.2"/>
        <g>
          <circle class="cls-8" cx="830.36" cy="177.72" r="7.2"/>
          <circle class="cls-8" cx="830.35" cy="199.82" r="7.2"/>
        </g>
        <line class="cls-2" x1="1091.15" y1="68.08" x2="1091.2" y2="153.11"/>
        <line class="cls-1" x1="1124.9" y1="256.12" x2="1124.81" y2="86.06"/>
        <line class="cls-5" x1="1259.07" y1="79.16" x2="1259.11" y2="164.19"/>
        <line class="cls-4" x1="1259.14" y1="211.09" x2="1259.2" y2="324.47"/>
        <circle class="cls-6" cx="1259.09" cy="189.84" r="7.2"/>
        <line class="cls-5" x1="1158.43" y1="392.44" x2="1158.41" y2="364.09"/>
        <circle class="cls-10" cx="1158.52" cy="412.54" r="7.2"/>
        <line class="cls-1" x1="1191.87" y1="106.59" x2="1191.91" y2="198.11"/>
        <g>
          <circle class="cls-8" cx="1192.43" cy="220.58" r="7.2"/>
          <circle class="cls-8" cx="1192.45" cy="87.97" r="7.2"/>
        </g>
        <line class="cls-2" x1="1091.41" y1="401.31" x2="1091.37" y2="316.27"/>
        <line class="cls-5" x1="1225.41" y1="139.66" x2="1225.45" y2="224.7"/>
        <g>
          <circle class="cls-10" cx="1260.06" cy="356.16" r="7.2"/>
          <circle class="cls-10" cx="1260.07" cy="378.25" r="7.2"/>
        </g>
        <line class="cls-1" x1="1158.31" y1="175.1" x2="1158.4" y2="345.17"/>
        <line class="cls-2" x1="1091.22" y1="196.54" x2="1091.25" y2="253.23"/>
        <line class="cls-5" x1="1191.96" y1="268.03" x2="1192.01" y2="353.06"/>
        <line class="cls-2" x1="1057.56" y1="286.84" x2="1057.64" y2="365.5"/>
        <line class="cls-2" x1="1225.49" y1="295.67" x2="1225.52" y2="352.36"/>
        <line class="cls-4" x1="1225.46" y1="241.76" x2="1225.47" y2="270.1"/>
        <line class="cls-4" x1="1192.57" y1="392.2" x2="1192.58" y2="433.52"/>
        <line class="cls-4" x1="1158.27" y1="93.71" x2="1158.3" y2="150.4"/>
        <circle class="cls-10" cx="1091.21" cy="172.2" r="7.2"/>
        <circle class="cls-10" cx="1091.27" cy="296.52" r="7.2"/>
        <g>
          <line class="cls-5" x1="1090.89" y1="253.32" x2="1060.33" y2="283.9"/>
          <circle class="cls-6" cx="1057.93" cy="285.9" r="7.2"/>
          <circle class="cls-6" cx="1091.53" cy="253.14" r="7.2"/>
        </g>
        <g>
          <line class="cls-5" x1="1225.52" y1="358.46" x2="1194.97" y2="389.05"/>
          <circle class="cls-6" cx="1192.57" cy="391.05" r="7.2"/>
          <circle class="cls-6" cx="1226.16" cy="358.29" r="7.2"/>
        </g>
        <circle class="cls-6" cx="1124.91" cy="283.11" r="7.2"/>
        <circle class="cls-6" cx="1192.46" cy="243.47" r="7.2"/>
        <line class="cls-2" x1="164.08" y1="279.51" x2="164.08" y2="333.79"/>
        <line class="cls-1" x1="1292.72" y1="132.42" x2="1292.76" y2="217.45"/>
        <circle class="cls-6" cx="1292.77" cy="236.53" r="7.2"/>
        <circle class="cls-6" cx="1292.78" cy="261.49" r="7.2"/>
        <g>
          <line class="cls-2" x1="1864.34" y1="82.34" x2="1864.3" y2="167.38"/>
          <line class="cls-2" x1="1528.19" y1="56.7" x2="1528.15" y2="141.73"/>
          <line class="cls-1" x1="1494.45" y1="286.76" x2="1494.54" y2="194.5"/>
          <line class="cls-2" x1="1494.84" y1="86.2" x2="1494.8" y2="171.24"/>
          <line class="cls-1" x1="1595.69" y1="106.2" x2="1595.68" y2="134.54"/>
          <line class="cls-4" x1="1864.28" y1="211.9" x2="1864.26" y2="240.24"/>
          <line class="cls-4" x1="1992.74" y1="242.46" x2="1992.72" y2="270.81"/>
          <circle class="cls-7" cx="1629.49" cy="139.85" r="7.2"/>
          <line class="cls-4" x1="1360.21" y1="128.39" x2="1360.15" y2="241.77"/>
          <circle class="cls-8" cx="1864.39" cy="190.6" r="7.2"/>
          <line class="cls-5" x1="1325.55" y1="161.59" x2="1325.56" y2="133.24"/>
          <circle class="cls-10" cx="1325.46" cy="181.05" r="7.2"/>
          <circle class="cls-6" cx="1729.96" cy="135.67" r="7.2"/>
          <line class="cls-1" x1="1326.38" y1="201.58" x2="1326.33" y2="286.61"/>
          <circle class="cls-8" cx="1426.9" cy="140.52" r="7.2"/>
          <line class="cls-1" x1="2286.89" y1="207.72" x2="2286.94" y2="292.75"/>
          <line class="cls-5" x1="1393.94" y1="56.96" x2="1393.9" y2="142"/>
          <g>
            <circle class="cls-6" cx="1830.57" cy="139.19" r="7.2"/>
            <circle class="cls-6" cx="1830.56" cy="161.29" r="7.2"/>
          </g>
          <line class="cls-1" x1="1992.79" y1="136.23" x2="1992.74" y2="221.26"/>
          <line class="cls-2" x1="2127.3" y1="41.65" x2="2127.24" y2="155.03"/>
          <line class="cls-2" x1="2026.39" y1="119.87" x2="2026.36" y2="176.56"/>
          <line class="cls-4" x1="1925.65" y1="127.76" x2="1925.64" y2="156.11"/>
          <circle class="cls-7" cx="2160.46" cy="140.13" r="7.2"/>
          <circle class="cls-6" cx="2026.34" cy="201.42" r="7.2"/>
          <circle class="cls-6" cx="2059.99" cy="135.84" r="7.2"/>
          <g>
            <circle class="cls-10" cx="1359.99" cy="259.45" r="7.2"/>
            <circle class="cls-10" cx="1359.98" cy="281.55" r="7.2"/>
          </g>
          <g>
            <circle class="cls-6" cx="2194.48" cy="334.89" r="7.2"/>
            <circle class="cls-6" cx="2194.49" cy="312.79" r="7.2"/>
          </g>
          <line class="cls-1" x1="1461.03" y1="163.73" x2="1460.94" y2="333.79"/>
          <line class="cls-5" x1="1696.06" y1="262.17" x2="1696.18" y2="135.51"/>
          <line class="cls-2" x1="1528.13" y1="185.17" x2="1528.1" y2="241.86"/>
          <line class="cls-5" x1="1629.11" y1="159.57" x2="1629.06" y2="244.61"/>
          <line class="cls-2" x1="1830.79" y1="186.16" x2="1830.7" y2="278.42"/>
          <line class="cls-5" x1="1797.18" y1="134.06" x2="1797.14" y2="219.09"/>
          <line class="cls-5" x1="1427.38" y1="185.33" x2="1427.34" y2="270.36"/>
          <line class="cls-4" x1="1898.02" y1="131.23" x2="1897.93" y2="301.3"/>
          <line class="cls-4" x1="1662.68" y1="189.41" x2="1662.59" y2="307.61"/>
          <line class="cls-2" x1="1561.78" y1="275.47" x2="1561.7" y2="354.12"/>
          <line class="cls-2" x1="1393.86" y1="205.96" x2="1393.83" y2="262.65"/>
          <line class="cls-1" x1="1662.65" y1="270.05" x2="1662.62" y2="327.3"/>
          <line class="cls-1" x1="1763.57" y1="144.94" x2="1763.48" y2="269.62"/>
          <line class="cls-2" x1="1763.51" y1="212.93" x2="1763.48" y2="269.62"/>
          <line class="cls-5" x1="1864.28" y1="254.43" x2="1864.25" y2="311.12"/>
          <line class="cls-1" x1="1595.66" y1="159.77" x2="1595.57" y2="329.84"/>
          <line class="cls-2" x1="1595.66" y1="159.77" x2="1595.63" y2="216.46"/>
          <line class="cls-4" x1="1729.94" y1="183.78" x2="1729.88" y2="297.16"/>
          <line class="cls-2" x1="1898.02" y1="131.23" x2="1897.99" y2="187.92"/>
          <line class="cls-1" x1="1561.84" y1="172.57" x2="1561.93" y2="2.5"/>
          <g>
            <circle class="cls-6" cx="1561.81" cy="219.18" r="7.2"/>
            <circle class="cls-6" cx="1561.82" cy="197.08" r="7.2"/>
          </g>
          <g>
            <circle class="cls-6" cx="2354.79" cy="222.68" r="7.2"/>
            <circle class="cls-6" cx="2354.8" cy="200.58" r="7.2"/>
          </g>
          <line class="cls-4" x1="1393.89" y1="159.06" x2="1393.87" y2="187.4"/>
          <line class="cls-4" x1="1426.78" y1="302.5" x2="1426.76" y2="343.81"/>
          <line class="cls-1" x1="1696.06" y1="262.17" x2="1696.09" y2="205.48"/>
          <line class="cls-4" x1="1461.08" y1="78.84" x2="1461.05" y2="146.38"/>
          <circle class="cls-8" cx="1629.05" cy="270.91" r="7.2"/>
          <circle class="cls-10" cx="1528.14" cy="160.82" r="7.2"/>
          <circle class="cls-6" cx="1729.95" cy="160.63" r="7.2"/>
          <circle class="cls-7" cx="1830.69" cy="300.62" r="7.2"/>
          <circle class="cls-6" cx="1695.86" cy="281.78" r="7.2"/>
          <circle class="cls-10" cx="2287.03" cy="312.5" r="7.2"/>
          <g>
            <circle class="cls-8" cx="1662.7" cy="139.82" r="7.2"/>
            <circle class="cls-8" cx="1662.69" cy="161.91" r="7.2"/>
          </g>
          <g>
            <circle class="cls-6" cx="1799.11" cy="250.56" r="7.2"/>
            <circle class="cls-6" cx="1799.1" cy="272.66" r="7.2"/>
          </g>
          <g>
            <line class="cls-5" x1="1528.46" y1="241.94" x2="1559.01" y2="272.53"/>
            <circle class="cls-6" cx="1561.42" cy="274.53" r="7.2"/>
            <circle class="cls-6" cx="1527.82" cy="241.77" r="7.2"/>
          </g>
          <g>
            <line class="cls-5" x1="1393.83" y1="268.76" x2="1424.38" y2="299.34"/>
            <circle class="cls-6" cx="1426.78" cy="301.35" r="7.2"/>
            <circle class="cls-6" cx="1393.18" cy="268.58" r="7.2"/>
          </g>
          <circle class="cls-6" cx="1494.43" cy="313.75" r="7.2"/>
          <circle class="cls-6" cx="1426.89" cy="160.77" r="7.2"/>
          <line class="cls-2" x1="2093.81" y1="133.27" x2="2093.69" y2="262.76"/>
          <line class="cls-5" x1="2160.82" y1="159.86" x2="2160.78" y2="244.89"/>
          <line class="cls-2" x1="1959.16" y1="158.63" x2="1959.07" y2="270.34"/>
          <line class="cls-5" x1="1925.52" y1="174.04" x2="1925.48" y2="259.07"/>
          <line class="cls-4" x1="2127.2" y1="224.67" x2="2127.11" y2="342.86"/>
          <line class="cls-1" x1="2127.17" y1="305.62" x2="2127.14" y2="362.31"/>
          <line class="cls-1" x1="2026.33" y1="220.99" x2="2026.27" y2="336.84"/>
          <line class="cls-2" x1="2026.3" y1="281.76" x2="2026.27" y2="338.45"/>
          <line class="cls-1" x1="2194.27" y1="140.63" x2="2194.18" y2="290.6"/>
          <line class="cls-2" x1="2194.27" y1="140.63" x2="2194.24" y2="184.35"/>
          <line class="cls-4" x1="2059.97" y1="183.95" x2="2059.91" y2="297.33"/>
          <line class="cls-1" x1="2093.81" y1="133.27" x2="2093.78" y2="189.95"/>
          <circle class="cls-8" cx="2160.76" cy="271.19" r="7.2"/>
          <circle class="cls-6" cx="2059.98" cy="160.8" r="7.2"/>
          <circle class="cls-7" cx="1959.17" cy="138.45" r="7.2"/>
          <circle class="cls-6" cx="1926.86" cy="285.34" r="7.2"/>
          <line class="cls-5" x1="2253.23" y1="89.49" x2="2253.19" y2="174.52"/>
          <line class="cls-2" x1="2287.19" y1="82.56" x2="2287.15" y2="167.6"/>
          <line class="cls-5" x1="2354.92" y1="120.01" x2="2354.89" y2="176.7"/>
          <circle class="cls-10" cx="2287.03" cy="190.82" r="7.2"/>
          <g>
            <circle class="cls-6" cx="2320.94" cy="145.41" r="7.2"/>
            <circle class="cls-6" cx="2320.93" cy="167.51" r="7.2"/>
          </g>
          <line class="cls-4" x1="2225.85" y1="127.92" x2="2225.84" y2="156.27"/>
          <circle class="cls-8" cx="2093.81" cy="291.98" r="7.2"/>
          <line class="cls-2" x1="2320.67" y1="192.38" x2="2320.58" y2="258.71"/>
          <line class="cls-4" x1="2253.43" y1="194.44" x2="2253.34" y2="364.51"/>
          <line class="cls-2" x1="2253.43" y1="194.44" x2="2253.4" y2="251.13"/>
          <circle class="cls-7" cx="2320.56" cy="277.02" r="7.2"/>
          <line class="cls-5" x1="2225.93" y1="174.19" x2="2225.89" y2="259.23"/>
          <circle class="cls-6" cx="2224.48" cy="285.5" r="7.2"/>
          <g>
            <circle class="cls-8" cx="2127.22" cy="177.72" r="7.2"/>
            <circle class="cls-8" cx="2127.21" cy="199.82" r="7.2"/>
          </g>
          <line class="cls-2" x1="2388.02" y1="68.08" x2="2388.06" y2="153.11"/>
          <line class="cls-1" x1="2421.77" y1="256.12" x2="2421.68" y2="86.06"/>
          <line class="cls-5" x1="2555.93" y1="79.16" x2="2555.98" y2="164.19"/>
          <line class="cls-4" x1="2556" y1="211.09" x2="2556.06" y2="324.47"/>
          <circle class="cls-6" cx="2555.95" cy="189.84" r="7.2"/>
          <line class="cls-5" x1="2455.29" y1="392.44" x2="2455.28" y2="364.09"/>
          <circle class="cls-10" cx="2455.39" cy="412.54" r="7.2"/>
          <line class="cls-1" x1="2488.74" y1="106.59" x2="2488.78" y2="198.11"/>
          <g>
            <circle class="cls-8" cx="2489.3" cy="220.58" r="7.2"/>
            <circle class="cls-8" cx="2489.31" cy="87.97" r="7.2"/>
          </g>
          <line class="cls-2" x1="2388.28" y1="401.31" x2="2388.23" y2="316.27"/>
          <line class="cls-5" x1="2522.27" y1="139.66" x2="2522.32" y2="224.7"/>
          <g>
            <circle class="cls-10" cx="2556.92" cy="356.16" r="7.2"/>
            <circle class="cls-10" cx="2556.94" cy="378.25" r="7.2"/>
          </g>
          <line class="cls-1" x1="2455.18" y1="175.1" x2="2455.27" y2="345.17"/>
          <line class="cls-2" x1="2388.09" y1="196.54" x2="2388.12" y2="253.23"/>
          <line class="cls-5" x1="2488.83" y1="268.03" x2="2488.87" y2="353.06"/>
          <line class="cls-2" x1="2354.43" y1="286.84" x2="2354.51" y2="365.5"/>
          <line class="cls-2" x1="2522.35" y1="295.67" x2="2522.38" y2="352.36"/>
          <line class="cls-4" x1="2522.33" y1="241.76" x2="2522.34" y2="270.1"/>
          <line class="cls-4" x1="2489.43" y1="392.2" x2="2489.45" y2="433.52"/>
          <line class="cls-4" x1="2455.13" y1="93.71" x2="2455.16" y2="150.4"/>
          <circle class="cls-10" cx="2388.07" cy="172.2" r="7.2"/>
          <circle class="cls-10" cx="2388.14" cy="296.52" r="7.2"/>
          <g>
            <line class="cls-5" x1="2387.75" y1="253.32" x2="2357.2" y2="283.9"/>
            <circle class="cls-6" cx="2354.8" cy="285.9" r="7.2"/>
            <circle class="cls-6" cx="2388.4" cy="253.14" r="7.2"/>
          </g>
          <g>
            <line class="cls-5" x1="2522.39" y1="358.46" x2="2491.84" y2="389.05"/>
            <circle class="cls-6" cx="2489.43" cy="391.05" r="7.2"/>
            <circle class="cls-6" cx="2523.03" cy="358.29" r="7.2"/>
          </g>
          <circle class="cls-6" cx="2421.78" cy="283.11" r="7.2"/>
          <circle class="cls-6" cx="2489.32" cy="243.47" r="7.2"/>
          <line class="cls-2" x1="1460.94" y1="279.51" x2="1460.94" y2="333.79"/>
        </g>
      </g>
    </g>
  </g>
</svg>