<?xml version="1.0" encoding="UTF-8"?>
<svg id="Capa_2" data-name="Capa 2" xmlns="http://www.w3.org/2000/svg" xmlns:xlink="http://www.w3.org/1999/xlink" viewBox="0 0 2640.64 438.7">
  <defs>
    <style>
      .cls-1 {
        stroke: #ffcb05;
      }

      .cls-1, .cls-2, .cls-3, .cls-4, .cls-5 {
        fill: none;
      }

      .cls-1, .cls-2, .cls-4, .cls-5 {
        stroke-linecap: round;
        stroke-miterlimit: 10;
        stroke-width: 5px;
      }

      .cls-2 {
        stroke: #fa0;
      }

      .cls-6 {
        fill: #ffcb05;
      }

      .cls-4 {
        stroke: #3c3a3c;
      }

      .cls-7 {
        fill: #3c3a3c;
      }

      .cls-8 {
        fill: #fa0;
      }

      .cls-9 {
        clip-path: url(#clippath);
      }

      .cls-10 {
        fill: #b9bece;
      }

      .cls-5 {
        stroke: #b9bece;
      }
    </style>
    <clipPath id="clippath">
      <rect class="cls-3" x="1159.15" y="-1159.15" width="322.33" height="2640.64" transform="translate(1159.15 1481.49) rotate(-90)"/>
    </clipPath>
  </defs>
  <g id="decoración">
    <g class="cls-9">
      <g>
        <line class="cls-2" x1="590.81" y1="356.36" x2="590.77" y2="271.32"/>
        <line class="cls-2" x1="254.66" y1="382" x2="254.62" y2="296.97"/>
        <line class="cls-1" x1="220.92" y1="151.94" x2="221.01" y2="244.2"/>
        <line class="cls-2" x1="221.31" y1="352.5" x2="221.27" y2="267.46"/>
        <line class="cls-1" x1="322.16" y1="332.5" x2="322.15" y2="304.16"/>
        <line class="cls-4" x1="590.75" y1="226.8" x2="590.73" y2="198.46"/>
        <line class="cls-4" x1="719.21" y1="196.24" x2="719.19" y2="167.89"/>
        <circle class="cls-7" cx="355.96" cy="298.85" r="7.2"/>
        <line class="cls-4" x1="86.68" y1="310.31" x2="86.62" y2="196.93"/>
        <circle class="cls-8" cx="590.86" cy="248.1" r="7.2"/>
        <line class="cls-5" x1="52.02" y1="277.11" x2="52.03" y2="305.45"/>
        <circle class="cls-10" cx="51.92" cy="257.65" r="7.2"/>
        <circle class="cls-6" cx="456.43" cy="303.03" r="7.2"/>
        <line class="cls-1" x1="52.85" y1="237.12" x2="52.8" y2="152.09"/>
        <circle class="cls-8" cx="153.37" cy="298.18" r="7.2"/>
        <line class="cls-1" x1="1013.36" y1="230.98" x2="1013.41" y2="145.95"/>
        <line class="cls-5" x1="120.41" y1="381.74" x2="120.37" y2="296.7"/>
        <g>
          <circle class="cls-6" cx="557.04" cy="299.51" r="7.2"/>
          <circle class="cls-6" cx="557.03" cy="277.41" r="7.2"/>
        </g>
        <line class="cls-1" x1="719.26" y1="302.47" x2="719.21" y2="217.44"/>
        <line class="cls-2" x1="853.77" y1="397.05" x2="853.71" y2="283.67"/>
        <line class="cls-2" x1="752.86" y1="318.83" x2="752.83" y2="262.14"/>
        <line class="cls-4" x1="652.12" y1="310.94" x2="652.11" y2="282.59"/>
        <circle class="cls-7" cx="886.93" cy="298.57" r="7.2"/>
        <circle class="cls-6" cx="752.81" cy="237.28" r="7.2"/>
        <circle class="cls-6" cx="786.46" cy="302.86" r="7.2"/>
        <g>
          <circle class="cls-10" cx="86.46" cy="179.25" r="7.2"/>
          <circle class="cls-10" cx="86.45" cy="157.15" r="7.2"/>
        </g>
        <g>
          <circle class="cls-6" cx="920.95" cy="103.81" r="7.2"/>
          <circle class="cls-6" cx="920.96" cy="125.91" r="7.2"/>
        </g>
        <line class="cls-1" x1="187.5" y1="274.97" x2="187.41" y2="104.91"/>
        <line class="cls-5" x1="422.53" y1="176.53" x2="422.65" y2="303.19"/>
        <line class="cls-2" x1="254.6" y1="253.53" x2="254.57" y2="196.84"/>
        <line class="cls-5" x1="355.58" y1="279.12" x2="355.53" y2="194.09"/>
        <line class="cls-2" x1="557.26" y1="252.54" x2="557.17" y2="160.28"/>
        <line class="cls-5" x1="523.65" y1="304.64" x2="523.6" y2="219.61"/>
        <line class="cls-5" x1="153.85" y1="253.37" x2="153.81" y2="168.34"/>
        <line class="cls-4" x1="624.49" y1="307.47" x2="624.4" y2="137.4"/>
        <line class="cls-4" x1="389.15" y1="249.29" x2="389.06" y2="131.09"/>
        <line class="cls-2" x1="288.25" y1="163.23" x2="288.17" y2="84.58"/>
        <line class="cls-2" x1="120.33" y1="232.73" x2="120.3" y2="176.05"/>
        <line class="cls-1" x1="389.12" y1="168.65" x2="389.09" y2="111.4"/>
        <line class="cls-1" x1="490.04" y1="293.76" x2="489.95" y2="169.08"/>
        <line class="cls-2" x1="489.98" y1="225.77" x2="489.95" y2="169.08"/>
        <line class="cls-5" x1="590.75" y1="184.27" x2="590.72" y2="127.58"/>
        <line class="cls-1" x1="322.13" y1="278.93" x2="322.04" y2="108.86"/>
        <line class="cls-2" x1="322.13" y1="278.93" x2="322.1" y2="222.24"/>
        <line class="cls-4" x1="456.41" y1="254.92" x2="456.35" y2="141.54"/>
        <line class="cls-2" x1="624.49" y1="307.47" x2="624.46" y2="250.78"/>
        <line class="cls-1" x1="288.31" y1="266.13" x2="288.4" y2="436.2"/>
        <g>
          <circle class="cls-6" cx="288.28" cy="219.52" r="7.2"/>
          <circle class="cls-6" cx="288.29" cy="241.62" r="7.2"/>
        </g>
        <g>
          <circle class="cls-6" cx="1081.26" cy="216.02" r="7.2"/>
          <circle class="cls-6" cx="1081.27" cy="238.12" r="7.2"/>
        </g>
        <line class="cls-4" x1="120.36" y1="279.64" x2="120.34" y2="251.3"/>
        <line class="cls-4" x1="153.25" y1="136.2" x2="153.23" y2="94.89"/>
        <line class="cls-1" x1="422.53" y1="176.53" x2="422.56" y2="233.22"/>
        <line class="cls-4" x1="187.55" y1="359.86" x2="187.52" y2="292.32"/>
        <circle class="cls-8" cx="355.52" cy="167.79" r="7.2"/>
        <circle class="cls-10" cx="254.61" cy="277.88" r="7.2"/>
        <circle class="cls-6" cx="456.42" cy="278.07" r="7.2"/>
        <circle class="cls-7" cx="557.16" cy="138.07" r="7.2"/>
        <circle class="cls-6" cx="422.33" cy="156.92" r="7.2"/>
        <circle class="cls-10" cx="1013.5" cy="126.2" r="7.2"/>
        <g>
          <circle class="cls-8" cx="389.17" cy="298.88" r="7.2"/>
          <circle class="cls-8" cx="389.16" cy="276.79" r="7.2"/>
        </g>
        <g>
          <circle class="cls-6" cx="525.58" cy="188.14" r="7.2"/>
          <circle class="cls-6" cx="525.57" cy="166.04" r="7.2"/>
        </g>
        <g>
          <line class="cls-5" x1="254.93" y1="196.76" x2="285.48" y2="166.17"/>
          <circle class="cls-6" cx="287.88" cy="164.17" r="7.2"/>
          <circle class="cls-6" cx="254.29" cy="196.93" r="7.2"/>
        </g>
        <g>
          <line class="cls-5" x1="120.3" y1="169.94" x2="150.85" y2="139.36"/>
          <circle class="cls-6" cx="153.25" cy="137.35" r="7.2"/>
          <circle class="cls-6" cx="119.65" cy="170.12" r="7.2"/>
        </g>
        <circle class="cls-6" cx="220.9" cy="124.95" r="7.2"/>
        <circle class="cls-6" cx="153.36" cy="277.93" r="7.2"/>
        <line class="cls-2" x1="820.28" y1="305.43" x2="820.16" y2="175.94"/>
        <line class="cls-5" x1="887.29" y1="278.84" x2="887.25" y2="193.81"/>
        <line class="cls-2" x1="685.63" y1="280.07" x2="685.54" y2="168.36"/>
        <line class="cls-5" x1="651.99" y1="264.66" x2="651.95" y2="179.63"/>
        <line class="cls-4" x1="853.67" y1="214.03" x2="853.58" y2="95.84"/>
        <line class="cls-1" x1="853.64" y1="133.08" x2="853.61" y2="76.39"/>
        <line class="cls-1" x1="752.8" y1="217.71" x2="752.74" y2="101.86"/>
        <line class="cls-2" x1="752.77" y1="156.94" x2="752.74" y2="100.25"/>
        <line class="cls-1" x1="920.74" y1="298.07" x2="920.65" y2="148.1"/>
        <line class="cls-2" x1="920.74" y1="298.07" x2="920.71" y2="254.35"/>
        <line class="cls-4" x1="786.44" y1="254.75" x2="786.38" y2="141.37"/>
        <line class="cls-1" x1="820.28" y1="305.43" x2="820.25" y2="248.75"/>
        <circle class="cls-8" cx="887.23" cy="167.51" r="7.2"/>
        <circle class="cls-6" cx="786.45" cy="277.9" r="7.2"/>
        <circle class="cls-7" cx="685.64" cy="300.25" r="7.2"/>
        <circle class="cls-6" cx="653.33" cy="153.36" r="7.2"/>
        <line class="cls-5" x1="979.7" y1="349.21" x2="979.66" y2="264.18"/>
        <line class="cls-2" x1="1013.66" y1="356.13" x2="1013.62" y2="271.1"/>
        <line class="cls-1" x1="1316.14" y1="306.28" x2="1316.1" y2="221.25"/>
        <line class="cls-5" x1="1081.39" y1="318.69" x2="1081.36" y2="262"/>
        <circle class="cls-10" cx="1013.5" cy="247.87" r="7.2"/>
        <circle class="cls-6" cx="1316.09" cy="202.17" r="7.2"/>
        <g>
          <circle class="cls-6" cx="1047.41" cy="293.29" r="7.2"/>
          <circle class="cls-6" cx="1047.4" cy="271.19" r="7.2"/>
        </g>
        <line class="cls-4" x1="952.32" y1="310.78" x2="952.31" y2="282.43"/>
        <circle class="cls-8" cx="820.28" cy="146.72" r="7.2"/>
        <line class="cls-2" x1="1047.14" y1="246.32" x2="1047.05" y2="179.99"/>
        <line class="cls-4" x1="979.9" y1="244.26" x2="979.81" y2="74.19"/>
        <line class="cls-2" x1="979.9" y1="244.26" x2="979.87" y2="187.57"/>
        <circle class="cls-6" cx="1316.07" cy="177.21" r="7.2"/>
        <circle class="cls-7" cx="1047.03" cy="161.68" r="7.2"/>
        <line class="cls-5" x1="952.4" y1="264.5" x2="952.36" y2="179.47"/>
        <circle class="cls-6" cx="950.95" cy="153.2" r="7.2"/>
        <g>
          <circle class="cls-8" cx="853.69" cy="260.98" r="7.2"/>
          <circle class="cls-8" cx="853.68" cy="238.88" r="7.2"/>
        </g>
        <line class="cls-2" x1="1114.49" y1="370.62" x2="1114.53" y2="285.59"/>
        <line class="cls-1" x1="1148.23" y1="182.58" x2="1148.14" y2="352.64"/>
        <line class="cls-5" x1="1282.4" y1="359.54" x2="1282.45" y2="274.51"/>
        <line class="cls-4" x1="1282.47" y1="227.61" x2="1282.53" y2="114.23"/>
        <circle class="cls-6" cx="1282.42" cy="248.86" r="7.2"/>
        <line class="cls-5" x1="1181.76" y1="46.26" x2="1181.75" y2="74.61"/>
        <circle class="cls-10" cx="1181.86" cy="26.16" r="7.2"/>
        <line class="cls-1" x1="1215.21" y1="332.11" x2="1215.25" y2="240.59"/>
        <g>
          <circle class="cls-8" cx="1215.77" cy="218.12" r="7.2"/>
          <circle class="cls-8" cx="1215.78" cy="350.73" r="7.2"/>
        </g>
        <line class="cls-2" x1="1114.75" y1="37.39" x2="1114.7" y2="122.42"/>
        <line class="cls-5" x1="1248.74" y1="299.04" x2="1248.79" y2="214"/>
        <line class="cls-1" x1="1181.65" y1="263.6" x2="1181.74" y2="93.53"/>
        <line class="cls-2" x1="1114.56" y1="242.16" x2="1114.59" y2="185.47"/>
        <line class="cls-5" x1="1215.3" y1="170.67" x2="1215.34" y2="85.64"/>
        <line class="cls-2" x1="1080.9" y1="151.86" x2="1080.98" y2="73.2"/>
        <line class="cls-2" x1="1248.82" y1="143.03" x2="1248.85" y2="86.34"/>
        <line class="cls-4" x1="1248.8" y1="196.94" x2="1248.81" y2="168.6"/>
        <line class="cls-4" x1="1215.9" y1="46.5" x2="1215.92" y2="5.18"/>
        <line class="cls-4" x1="1181.6" y1="344.99" x2="1181.63" y2="288.3"/>
        <circle class="cls-10" cx="1114.54" cy="266.5" r="7.2"/>
        <circle class="cls-10" cx="1114.61" cy="142.18" r="7.2"/>
        <g>
          <line class="cls-5" x1="1114.22" y1="185.38" x2="1083.67" y2="154.8"/>
          <circle class="cls-6" cx="1081.27" cy="152.8" r="7.2"/>
          <circle class="cls-6" cx="1114.86" cy="185.56" r="7.2"/>
        </g>
        <g>
          <line class="cls-5" x1="1248.86" y1="80.24" x2="1218.3" y2="49.65"/>
          <circle class="cls-6" cx="1215.9" cy="47.65" r="7.2"/>
          <circle class="cls-6" cx="1249.5" cy="80.41" r="7.2"/>
        </g>
        <circle class="cls-6" cx="1148.25" cy="155.59" r="7.2"/>
        <circle class="cls-6" cx="1215.79" cy="195.23" r="7.2"/>
        <line class="cls-2" x1="187.41" y1="159.19" x2="187.41" y2="104.91"/>
        <line class="cls-1" x1="1316.05" y1="306.28" x2="1316.1" y2="221.25"/>
        <circle class="cls-6" cx="1316.11" cy="202.17" r="7.2"/>
        <circle class="cls-6" cx="1316.12" cy="177.21" r="7.2"/>
        <g>
          <line class="cls-2" x1="1887.68" y1="356.36" x2="1887.64" y2="271.32"/>
          <line class="cls-2" x1="1551.53" y1="382" x2="1551.49" y2="296.97"/>
          <line class="cls-1" x1="1517.78" y1="151.94" x2="1517.87" y2="244.2"/>
          <line class="cls-2" x1="1518.18" y1="352.5" x2="1518.13" y2="267.46"/>
          <line class="cls-1" x1="1619.03" y1="332.5" x2="1619.01" y2="304.16"/>
          <line class="cls-4" x1="1887.61" y1="226.8" x2="1887.6" y2="198.46"/>
          <line class="cls-4" x1="2016.07" y1="196.24" x2="2016.06" y2="167.89"/>
          <circle class="cls-7" cx="1652.83" cy="298.85" r="7.2"/>
          <line class="cls-4" x1="1383.55" y1="310.31" x2="1383.49" y2="196.93"/>
          <circle class="cls-8" cx="1887.73" cy="248.1" r="7.2"/>
          <line class="cls-5" x1="1348.89" y1="277.11" x2="1348.9" y2="305.45"/>
          <circle class="cls-10" cx="1348.79" cy="257.65" r="7.2"/>
          <circle class="cls-6" cx="1753.3" cy="303.03" r="7.2"/>
          <line class="cls-1" x1="1349.72" y1="237.12" x2="1349.67" y2="152.09"/>
          <circle class="cls-8" cx="1450.24" cy="298.18" r="7.2"/>
          <line class="cls-1" x1="2310.23" y1="230.98" x2="2310.27" y2="145.95"/>
          <line class="cls-5" x1="1417.28" y1="381.74" x2="1417.23" y2="296.7"/>
          <g>
            <circle class="cls-6" cx="1853.91" cy="299.51" r="7.2"/>
            <circle class="cls-6" cx="1853.9" cy="277.41" r="7.2"/>
          </g>
          <line class="cls-1" x1="2016.12" y1="302.47" x2="2016.08" y2="217.44"/>
          <line class="cls-2" x1="2150.63" y1="397.05" x2="2150.57" y2="283.67"/>
          <line class="cls-2" x1="2049.72" y1="318.83" x2="2049.69" y2="262.14"/>
          <line class="cls-4" x1="1948.99" y1="310.94" x2="1948.97" y2="282.59"/>
          <circle class="cls-7" cx="2183.8" cy="298.57" r="7.2"/>
          <circle class="cls-6" cx="2049.68" cy="237.28" r="7.2"/>
          <circle class="cls-6" cx="2083.33" cy="302.86" r="7.2"/>
          <g>
            <circle class="cls-10" cx="1383.33" cy="179.25" r="7.2"/>
            <circle class="cls-10" cx="1383.31" cy="157.15" r="7.2"/>
          </g>
          <g>
            <circle class="cls-6" cx="2217.82" cy="103.81" r="7.2"/>
            <circle class="cls-6" cx="2217.83" cy="125.91" r="7.2"/>
          </g>
          <line class="cls-1" x1="1484.37" y1="274.97" x2="1484.28" y2="104.91"/>
          <line class="cls-5" x1="1719.39" y1="176.53" x2="1719.51" y2="303.19"/>
          <line class="cls-2" x1="1551.46" y1="253.53" x2="1551.43" y2="196.84"/>
          <line class="cls-5" x1="1652.44" y1="279.12" x2="1652.4" y2="194.09"/>
          <line class="cls-2" x1="1854.13" y1="252.54" x2="1854.04" y2="160.28"/>
          <line class="cls-5" x1="1820.52" y1="304.64" x2="1820.47" y2="219.61"/>
          <line class="cls-5" x1="1450.72" y1="253.37" x2="1450.68" y2="168.34"/>
          <line class="cls-4" x1="1921.36" y1="307.47" x2="1921.27" y2="137.4"/>
          <line class="cls-4" x1="1686.01" y1="249.29" x2="1685.92" y2="131.09"/>
          <line class="cls-2" x1="1585.12" y1="163.23" x2="1585.04" y2="84.58"/>
          <line class="cls-2" x1="1417.2" y1="232.73" x2="1417.17" y2="176.05"/>
          <line class="cls-1" x1="1685.98" y1="168.65" x2="1685.95" y2="111.4"/>
          <line class="cls-1" x1="1786.91" y1="293.76" x2="1786.82" y2="169.08"/>
          <line class="cls-2" x1="1786.85" y1="225.77" x2="1786.82" y2="169.08"/>
          <line class="cls-5" x1="1887.61" y1="184.27" x2="1887.58" y2="127.58"/>
          <line class="cls-1" x1="1619" y1="278.93" x2="1618.91" y2="108.86"/>
          <line class="cls-2" x1="1619" y1="278.93" x2="1618.97" y2="222.24"/>
          <line class="cls-4" x1="1753.28" y1="254.92" x2="1753.22" y2="141.54"/>
          <line class="cls-2" x1="1921.36" y1="307.47" x2="1921.33" y2="250.78"/>
          <line class="cls-1" x1="1585.17" y1="266.13" x2="1585.26" y2="436.2"/>
          <g>
            <circle class="cls-6" cx="1585.15" cy="219.52" r="7.2"/>
            <circle class="cls-6" cx="1585.16" cy="241.62" r="7.2"/>
          </g>
          <g>
            <circle class="cls-6" cx="2378.13" cy="216.02" r="7.2"/>
            <circle class="cls-6" cx="2378.14" cy="238.12" r="7.2"/>
          </g>
          <line class="cls-4" x1="1417.22" y1="279.64" x2="1417.21" y2="251.3"/>
          <line class="cls-4" x1="1450.12" y1="136.2" x2="1450.1" y2="94.89"/>
          <line class="cls-1" x1="1719.39" y1="176.53" x2="1719.42" y2="233.22"/>
          <line class="cls-4" x1="1484.41" y1="359.86" x2="1484.38" y2="292.32"/>
          <circle class="cls-8" cx="1652.39" cy="167.79" r="7.2"/>
          <circle class="cls-10" cx="1551.48" cy="277.88" r="7.2"/>
          <circle class="cls-6" cx="1753.29" cy="278.07" r="7.2"/>
          <circle class="cls-7" cx="1854.03" cy="138.07" r="7.2"/>
          <circle class="cls-6" cx="1719.2" cy="156.92" r="7.2"/>
          <circle class="cls-10" cx="2310.37" cy="126.2" r="7.2"/>
          <g>
            <circle class="cls-8" cx="1686.04" cy="298.88" r="7.2"/>
            <circle class="cls-8" cx="1686.03" cy="276.79" r="7.2"/>
          </g>
          <g>
            <circle class="cls-6" cx="1822.45" cy="188.14" r="7.2"/>
            <circle class="cls-6" cx="1822.43" cy="166.04" r="7.2"/>
          </g>
          <g>
            <line class="cls-5" x1="1551.8" y1="196.76" x2="1582.35" y2="166.17"/>
            <circle class="cls-6" cx="1584.75" cy="164.17" r="7.2"/>
            <circle class="cls-6" cx="1551.15" cy="196.93" r="7.2"/>
          </g>
          <g>
            <line class="cls-5" x1="1417.16" y1="169.94" x2="1447.71" y2="139.36"/>
            <circle class="cls-6" cx="1450.12" cy="137.35" r="7.2"/>
            <circle class="cls-6" cx="1416.52" cy="170.12" r="7.2"/>
          </g>
          <circle class="cls-6" cx="1517.77" cy="124.95" r="7.2"/>
          <circle class="cls-6" cx="1450.23" cy="277.93" r="7.2"/>
          <line class="cls-2" x1="2117.14" y1="305.43" x2="2117.02" y2="175.94"/>
          <line class="cls-5" x1="2184.16" y1="278.84" x2="2184.11" y2="193.81"/>
          <line class="cls-2" x1="1982.5" y1="280.07" x2="1982.41" y2="168.36"/>
          <line class="cls-5" x1="1948.86" y1="264.66" x2="1948.81" y2="179.63"/>
          <line class="cls-4" x1="2150.54" y1="214.03" x2="2150.45" y2="95.84"/>
          <line class="cls-1" x1="2150.51" y1="133.08" x2="2150.48" y2="76.39"/>
          <line class="cls-1" x1="2049.67" y1="217.71" x2="2049.61" y2="101.86"/>
          <line class="cls-2" x1="2049.64" y1="156.94" x2="2049.61" y2="100.25"/>
          <line class="cls-1" x1="2217.6" y1="298.07" x2="2217.51" y2="148.1"/>
          <line class="cls-2" x1="2217.6" y1="298.07" x2="2217.57" y2="254.35"/>
          <line class="cls-4" x1="2083.3" y1="254.75" x2="2083.24" y2="141.37"/>
          <line class="cls-1" x1="2117.14" y1="305.43" x2="2117.11" y2="248.75"/>
          <circle class="cls-8" cx="2184.1" cy="167.51" r="7.2"/>
          <circle class="cls-6" cx="2083.31" cy="277.9" r="7.2"/>
          <circle class="cls-7" cx="1982.5" cy="300.25" r="7.2"/>
          <circle class="cls-6" cx="1950.19" cy="153.36" r="7.2"/>
          <line class="cls-5" x1="2276.57" y1="349.21" x2="2276.52" y2="264.18"/>
          <line class="cls-2" x1="2310.53" y1="356.13" x2="2310.48" y2="271.1"/>
          <line class="cls-5" x1="2378.26" y1="318.69" x2="2378.23" y2="262"/>
          <circle class="cls-10" cx="2310.37" cy="247.87" r="7.2"/>
          <g>
            <circle class="cls-6" cx="2344.28" cy="293.29" r="7.2"/>
            <circle class="cls-6" cx="2344.27" cy="271.19" r="7.2"/>
          </g>
          <line class="cls-4" x1="2249.19" y1="310.78" x2="2249.17" y2="282.43"/>
          <circle class="cls-8" cx="2117.14" cy="146.72" r="7.2"/>
          <line class="cls-2" x1="2344.01" y1="246.32" x2="2343.92" y2="179.99"/>
          <line class="cls-4" x1="2276.77" y1="244.26" x2="2276.68" y2="74.19"/>
          <line class="cls-2" x1="2276.77" y1="244.26" x2="2276.74" y2="187.57"/>
          <circle class="cls-7" cx="2343.89" cy="161.68" r="7.2"/>
          <line class="cls-5" x1="2249.27" y1="264.5" x2="2249.23" y2="179.47"/>
          <circle class="cls-6" cx="2247.82" cy="153.2" r="7.2"/>
          <g>
            <circle class="cls-8" cx="2150.56" cy="260.98" r="7.2"/>
            <circle class="cls-8" cx="2150.55" cy="238.88" r="7.2"/>
          </g>
          <line class="cls-2" x1="2411.36" y1="370.62" x2="2411.4" y2="285.59"/>
          <line class="cls-1" x1="2445.1" y1="182.58" x2="2445.01" y2="352.64"/>
          <line class="cls-5" x1="2579.27" y1="359.54" x2="2579.32" y2="274.51"/>
          <line class="cls-4" x1="2579.34" y1="227.61" x2="2579.4" y2="114.23"/>
          <circle class="cls-6" cx="2579.29" cy="248.86" r="7.2"/>
          <line class="cls-5" x1="2478.63" y1="46.26" x2="2478.62" y2="74.61"/>
          <circle class="cls-10" cx="2478.72" cy="26.16" r="7.2"/>
          <line class="cls-1" x1="2512.07" y1="332.11" x2="2512.12" y2="240.59"/>
          <g>
            <circle class="cls-8" cx="2512.64" cy="218.12" r="7.2"/>
            <circle class="cls-8" cx="2512.65" cy="350.73" r="7.2"/>
          </g>
          <line class="cls-2" x1="2411.61" y1="37.39" x2="2411.57" y2="122.42"/>
          <line class="cls-5" x1="2545.61" y1="299.04" x2="2545.65" y2="214"/>
          <g>
            <circle class="cls-10" cx="2580.26" cy="82.54" r="7.2"/>
            <circle class="cls-10" cx="2580.27" cy="60.45" r="7.2"/>
          </g>
          <line class="cls-1" x1="2478.52" y1="263.6" x2="2478.61" y2="93.53"/>
          <line class="cls-2" x1="2411.42" y1="242.16" x2="2411.45" y2="185.47"/>
          <line class="cls-5" x1="2512.17" y1="170.67" x2="2512.21" y2="85.64"/>
          <line class="cls-2" x1="2377.77" y1="151.86" x2="2377.85" y2="73.2"/>
          <line class="cls-2" x1="2545.69" y1="143.03" x2="2545.72" y2="86.34"/>
          <line class="cls-4" x1="2545.66" y1="196.94" x2="2545.68" y2="168.6"/>
          <line class="cls-4" x1="2512.77" y1="46.5" x2="2512.79" y2="5.18"/>
          <line class="cls-4" x1="2478.47" y1="344.99" x2="2478.5" y2="288.3"/>
          <circle class="cls-10" cx="2411.41" cy="266.5" r="7.2"/>
          <circle class="cls-10" cx="2411.48" cy="142.18" r="7.2"/>
          <g>
            <line class="cls-5" x1="2411.09" y1="185.38" x2="2380.54" y2="154.8"/>
            <circle class="cls-6" cx="2378.13" cy="152.8" r="7.2"/>
            <circle class="cls-6" cx="2411.73" cy="185.56" r="7.2"/>
          </g>
          <g>
            <line class="cls-5" x1="2545.72" y1="80.24" x2="2515.17" y2="49.65"/>
            <circle class="cls-6" cx="2512.77" cy="47.65" r="7.2"/>
            <circle class="cls-6" cx="2546.37" cy="80.41" r="7.2"/>
          </g>
          <circle class="cls-6" cx="2445.12" cy="155.59" r="7.2"/>
          <circle class="cls-6" cx="2512.66" cy="195.23" r="7.2"/>
          <line class="cls-2" x1="1484.28" y1="159.19" x2="1484.28" y2="104.91"/>
        </g>
      </g>
    </g>
  </g>
</svg>