<?xml version="1.0" encoding="UTF-8"?>
<svg id="Capa_1" data-name="Capa 1" xmlns="http://www.w3.org/2000/svg" viewBox="0 0 540 540">
  <defs>
    <style>
      .clbb-logo {
        fill: #f7f7f7;
      }
    </style>
  </defs>
  <path class="clbb-logo" d="M381.55,320.57h-222.84c-1.09,0-1.96.88-1.96,1.97s.88,1.97,1.96,1.97h222.84c1.09,0,1.96-.88,1.96-1.97s-.88-1.97-1.96-1.97Z"/>
  <path class="clbb-logo" d="M198.16,159.5h44.58v-.04c.19,0,.34.04.53.04h110.78c18.18,0,29.46-10.87,29.46-27.71,0-10.72-4.62-18.47-12.63-22.68,4.91-4.07,8.28-10.32,8.28-18.34,0-16.43-13.04-27.84-30.95-27.84h-49.27c-8.44,0-16.3,3.13-22.14,8.97-5.71,5.56-8.84,13.31-8.84,21.46v49.43h-24.57c-8.12,0-11.21-3.48-11.21-11.71V62.92h-34.03c-23.3,0-41.42,19.6-41.42,44.64v7.3c0,25.03,18.12,44.63,41.42,44.63ZM365.04,130.98c0,9.24-6.64,11.81-13.72,11.81h-19c1.24-3.29,1.93-6.96,1.93-11,0-5.03-1.05-9.37-2.96-13.03h19.76c8.97,0,13.99,4.34,13.99,12.22ZM327.95,80.45h20.27c6.79,0,12.9,3.25,12.9,11.13,0,10.18-9.93,10.46-11.02,10.46h-22.85c1.65-3.22,2.64-6.99,2.64-11.28,0-3.73-.7-7.18-1.95-10.31ZM285.89,93.35c0-7.21,5.44-12.9,13.06-12.9,6.79,0,12.9,3.25,12.9,11.13,0,10.18-9.93,10.46-11.02,10.46h-14.94v-8.69ZM285.89,118.76h15.89c8.97,0,13.99,4.34,13.99,12.22,0,9.23-6.63,11.81-13.71,11.81h-16.17v-24.03ZM173.03,107.56c0-16.28,11.08-27.92,25.13-27.92h17.06v51.69c0,4.21.61,8.05,1.77,11.45h-18.83c-14.05,0-25.13-11.64-25.13-27.92v-7.3Z"/>
  <g>
    <path class="clbb-logo" d="M173.83,229.51c7.83,0,13.78-4.63,16.02-11.8h-7.22c-1.58,3.2-4.78,5.7-8.79,5.7-5.8,0-10.38-5.59-10.38-12.31s4.57-12.25,10.38-12.25c4.07,0,7.22,2.39,8.79,5.59h7.28c-2.19-7.22-8.09-11.75-16.07-11.75-9.61,0-17.09,8.08-17.09,18.41s7.48,18.41,17.09,18.41Z"/>
    <rect class="clbb-logo" x="197.23" y="193.6" width="6.71" height="35.3"/>
    <polygon class="clbb-logo" points="227.04 228.9 227.04 199.86 236.5 199.86 236.5 193.6 210.86 193.6 210.86 199.86 220.33 199.86 220.33 228.9 227.04 228.9"/>
    <path class="clbb-logo" d="M268.44,203.36v-9.76h-6.71v9.92c0,3.81-2.29,6.05-6.05,6.05s-6.05-2.24-6.05-6.05v-9.92h-6.77v9.76c0,3.66,1.27,6.92,3.56,9.21,1.58,1.58,3.61,2.7,5.85,3.21v13.12h6.77v-13.12c2.24-.51,4.27-1.63,5.85-3.21,2.29-2.29,3.56-5.54,3.56-9.21Z"/>
    <path class="clbb-logo" d="M317.34,228.9v-6.61h-10.63c-3.2,0-4.42-1.38-4.42-4.63v-24.06h-6.72v24.16c0,6.76,3.87,11.14,11.09,11.14h10.68Z"/>
    <path class="clbb-logo" d="M349.69,228.9v-23.4c0-3.61-1.27-6.87-3.56-9.15-2.34-2.34-5.59-3.61-9.25-3.61s-6.87,1.27-9.21,3.61c-2.29,2.29-3.56,5.54-3.56,9.15v23.4h6.72v-9.86h12.15v9.86h6.71ZM330.82,212.57v-7.22c0-3.77,2.29-6.06,6.05-6.06s6.1,2.29,6.1,6.06v7.22h-12.15Z"/>
    <path class="clbb-logo" d="M378.78,210.03c1.83-1.53,3.1-3.87,3.1-6.86,0-6.16-4.88-10.43-11.6-10.43-3.15,0-6.1,1.17-8.29,3.35-2.13,2.09-3.3,4.99-3.3,8.04v24.77h13.78c6.81,0,11.04-4.07,11.04-10.38,0-4.02-1.73-6.92-4.73-8.49ZM365.4,204.13c0-2.7,2.04-4.83,4.88-4.83,2.55,0,4.84,1.22,4.84,4.17,0,3.81-3.71,3.92-4.12,3.92h-5.6v-3.25ZM371.46,222.64h-6.06v-9h5.95c3.36,0,5.24,1.63,5.24,4.58,0,3.45-2.49,4.42-5.14,4.42Z"/>
    <path class="clbb-logo" d="M181.75,279.07c0-4.05-1.74-6.97-4.76-8.56,1.84-1.54,3.12-3.89,3.12-6.92,0-6.2-4.92-10.51-11.68-10.51-3.18,0-6.15,1.18-8.36,3.38-2.15,2.1-3.33,5.02-3.33,8.1v24.95h13.89c6.86,0,11.12-4.1,11.12-10.45ZM163.51,264.57c0-2.72,2.05-4.87,4.92-4.87,2.56,0,4.87,1.23,4.87,4.2,0,3.84-3.74,3.95-4.15,3.95h-5.63v-3.28ZM163.51,283.22v-9.07h5.99c3.38,0,5.28,1.64,5.28,4.61,0,3.48-2.51,4.46-5.17,4.46h-6.1Z"/>
    <rect class="clbb-logo" x="200.46" y="253.96" width="6.76" height="35.56"/>
    <path class="clbb-logo" d="M243.46,290.14c10.04,0,17.37-8.2,17.37-18.55s-7.33-18.49-17.37-18.49-17.42,8.2-17.42,18.49,7.33,18.55,17.42,18.55ZM243.46,259.5c5.84,0,10.55,5.48,10.55,12.09s-4.71,12.15-10.55,12.15-10.61-5.48-10.61-12.15,4.72-12.09,10.61-12.09Z"/>
    <path class="clbb-logo" d="M291.12,253.09c-3.18,0-6.15,1.18-8.36,3.38-2.15,2.1-3.33,5.02-3.33,8.1v24.95h13.89c6.86,0,11.12-4.1,11.12-10.45,0-4.05-1.74-6.97-4.76-8.56,1.85-1.54,3.12-3.89,3.12-6.92,0-6.2-4.92-10.51-11.68-10.51ZM286.2,264.57c0-2.72,2.05-4.87,4.92-4.87,2.56,0,4.87,1.23,4.87,4.2,0,3.84-3.74,3.95-4.15,3.95h-5.63v-3.28ZM292.3,283.22h-6.1v-9.07h5.99c3.38,0,5.28,1.64,5.28,4.61,0,3.48-2.51,4.46-5.17,4.46Z"/>
    <polygon class="clbb-logo" points="328.32 243.77 323.56 250.99 328.53 250.99 335.91 243.77 328.32 243.77"/>
    <rect class="clbb-logo" x="323.15" y="253.96" width="6.76" height="35.56"/>
    <path class="clbb-logo" d="M366.15,290.14c10.04,0,17.37-8.2,17.37-18.55s-7.33-18.49-17.37-18.49-17.42,8.2-17.42,18.49,7.33,18.55,17.42,18.55ZM366.15,259.5c5.84,0,10.55,5.48,10.55,12.09s-4.71,12.15-10.55,12.15-10.61-5.48-10.61-12.15,4.72-12.09,10.61-12.09Z"/>
  </g>
  <path class="clbb-logo" d="M261.15,476.82v-52.2h-52.2v-52.2h-52.2v-17.4h69.6v52.2h52.2v69.6h-17.4ZM156.75,407.22v69.6h69.59v-17.4h-52.2v-52.2h-17.39ZM295.96,423.65h5.23v-9.2c0-.98.23-1.79.69-2.41.46-.62,1.1-.93,1.91-.93s1.37.24,1.75.72c.37.48.56,1.17.56,2.07v9.75h5.23v-9.2c0-.98.22-1.79.67-2.41.45-.62,1.09-.93,1.92-.93s1.37.24,1.75.72c.38.48.56,1.17.56,2.07v9.75h5.23v-10.68c0-.92-.12-1.77-.35-2.54-.24-.77-.58-1.43-1.04-1.97-.46-.54-1.04-.96-1.75-1.27-.71-.3-1.52-.45-2.44-.45-1.07,0-2.04.23-2.9.69-.87.46-1.62,1.19-2.26,2.2h-.07c-.43-.9-1.03-1.6-1.81-2.12-.78-.51-1.72-.77-2.81-.77-1.2,0-2.2.26-3,.77-.8.51-1.46,1.2-1.97,2.05h-.09v-2.34h-5v16.42ZM323.76,404.95h5.23v-4.23h-5.23v4.23ZM323.76,423.65h5.23v-16.42h-5.23v16.42ZM339.85,423.76c.48-.05.84-.11,1.07-.18v-3.81c-.1,0-.27,0-.48.02-.21.01-.44.02-.67.02-.56,0-1-.11-1.33-.32-.33-.21-.5-.64-.5-1.28v-7.7h2.98v-3.27h-2.98v-5.2h-5.1v5.2h-2.18v3.27h2.18v8.82c0,.88.13,1.61.39,2.2.25.59.62,1.05,1.09,1.39.47.34,1.02.58,1.65.72.63.14,1.33.21,2.1.21.7,0,1.3-.02,1.78-.08ZM295.96,448.55h5.23v-9.2c0-.98.23-1.79.69-2.41.46-.62,1.1-.93,1.91-.93s1.37.24,1.75.72c.37.48.56,1.17.56,2.07v9.75h5.23v-9.2c0-.98.22-1.79.67-2.41.45-.62,1.09-.93,1.92-.93s1.37.24,1.75.72c.38.48.56,1.17.56,2.07v9.75h5.23v-10.68c0-.92-.12-1.76-.35-2.53-.24-.77-.58-1.42-1.04-1.97-.46-.54-1.04-.97-1.75-1.27-.71-.3-1.52-.45-2.44-.45-1.07,0-2.04.23-2.9.69-.87.46-1.62,1.19-2.26,2.2h-.07c-.43-.9-1.03-1.6-1.81-2.12-.78-.51-1.72-.77-2.81-.77-1.2,0-2.2.26-3,.77-.8.52-1.46,1.2-1.97,2.06h-.09v-2.34h-5v16.42ZM334.51,448.64c.84-.25,1.61-.63,2.29-1.12.73-.49,1.33-1.07,1.79-1.75.47-.67.79-1.38.96-2.13h-5.1c-.23.51-.58.91-1.03,1.2-.45.28-1.01.43-1.7.43-1.09,0-1.93-.32-2.54-.96-.6-.64-.98-1.52-1.15-2.64h11.8c.02-1.67-.21-3.19-.69-4.57-.48-1.38-1.22-2.52-2.2-3.41-.71-.64-1.53-1.14-2.45-1.51-.93-.36-1.98-.55-3.16-.55-1.26,0-2.4.22-3.43.66-1.03.44-1.92,1.05-2.66,1.83-.75.78-1.32,1.7-1.73,2.76-.41,1.06-.61,2.2-.61,3.42s.2,2.4.61,3.46c.41,1.07.99,1.99,1.73,2.78.75.77,1.67,1.39,2.76,1.82,1.09.44,2.31.66,3.66.66,1.05,0,1.99-.12,2.84-.39ZM328.08,438.57c.17-.98.52-1.76,1.06-2.34.54-.58,1.3-.87,2.31-.87.85,0,1.56.29,2.12.87.56.58.89,1.36.99,2.34h-6.48ZM351.22,448.34c.82-.48,1.48-1.15,1.97-2.01h.07v2.22h5v-22.93h-5.23v8.37h-.1c-.49-.68-1.1-1.24-1.8-1.68-.71-.44-1.64-.66-2.79-.66-1.07,0-2.05.22-2.92.65-.88.43-1.63,1.02-2.26,1.78-.63.76-1.12,1.67-1.48,2.74-.35,1.07-.53,2.25-.53,3.53,0,1.37.18,2.6.53,3.68.35,1.08.85,1.99,1.5,2.74.64.75,1.4,1.32,2.27,1.72.88.39,1.84.59,2.89.59s2.05-.24,2.87-.72ZM347.3,443.67c-.56-.84-.85-1.97-.85-3.4s.29-2.52.87-3.38c.58-.87,1.39-1.3,2.44-1.3.58,0,1.08.12,1.49.35.42.24.77.56,1.06.98.29.42.5.92.64,1.51.14.59.21,1.22.21,1.91,0,1.35-.31,2.45-.91,3.31-.61.85-1.46,1.28-2.55,1.28-1.03,0-1.82-.42-2.39-1.25ZM360.36,429.84h5.23v-4.23h-5.23v4.23ZM360.36,448.55h5.23v-16.42h-5.23v16.42ZM375.96,448.35c.76-.41,1.39-.95,1.88-1.64h.07c.06.43.14.8.22,1.11.08.31.2.55.32.72h5.07v-.22c-.24-.15-.39-.41-.46-.79-.08-.37-.11-.89-.11-1.56v-8.27c0-1.03-.17-1.93-.52-2.73-.34-.79-.86-1.44-1.57-1.95-.59-.45-1.33-.78-2.18-1.01-.86-.22-1.9-.34-3.14-.34s-2.32.15-3.24.45c-.92.3-1.69.7-2.3,1.22-.61.51-1.07,1.12-1.39,1.8-.32.68-.49,1.41-.51,2.18h4.81c.09-.69.34-1.21.77-1.57.43-.36,1.06-.55,1.89-.55s1.36.16,1.72.48c.35.32.53.75.53,1.28s-.31.95-.93,1.18c-.62.23-1.7.45-3.24.64-.86.11-1.67.27-2.42.48-.76.21-1.43.52-2,.91-.58.39-1.03.9-1.36,1.5-.33.61-.49,1.36-.49,2.26,0,.81.14,1.53.41,2.15.28.62.66,1.15,1.16,1.57.49.43,1.08.75,1.78.96.69.22,1.44.32,2.26.32,1.24,0,2.24-.2,3-.61ZM373.03,445.21c-.43-.28-.64-.75-.64-1.41,0-.62.22-1.08.68-1.39.45-.31,1.17-.58,2.18-.82.53-.12,1.03-.26,1.49-.4.46-.14.86-.29,1.2-.47v1.96c0,.9-.31,1.62-.92,2.15-.61.53-1.41.8-2.38.8-.65,0-1.18-.14-1.61-.42ZM295.96,476.82h5.29v-22.93h-5.29v22.93ZM311.66,476.63c.76-.4,1.38-.95,1.88-1.63h.07c.06.43.14.79.22,1.11.09.31.19.55.32.72h5.07v-.22c-.24-.15-.39-.41-.46-.79-.08-.37-.11-.89-.11-1.56v-8.27c0-1.03-.17-1.94-.52-2.73-.34-.79-.87-1.44-1.57-1.96-.6-.45-1.33-.78-2.18-1.01-.86-.22-1.9-.34-3.14-.34s-2.32.15-3.24.45c-.92.3-1.68.7-2.29,1.22-.61.51-1.07,1.11-1.4,1.79-.32.69-.49,1.41-.51,2.18h4.81c.09-.69.34-1.21.77-1.57.43-.36,1.06-.55,1.89-.55.79,0,1.36.16,1.71.48.35.32.53.75.53,1.28s-.31.95-.93,1.19c-.62.23-1.7.45-3.24.64-.85.1-1.66.27-2.42.48-.76.21-1.43.52-2,.91-.58.4-1.03.9-1.36,1.51-.33.61-.5,1.36-.5,2.26,0,.81.14,1.53.42,2.15.28.62.66,1.15,1.16,1.57.49.43,1.08.75,1.78.96.7.21,1.45.32,2.26.32,1.24,0,2.24-.2,3-.61ZM308.72,473.49c-.43-.28-.64-.75-.64-1.41,0-.62.22-1.08.67-1.39.45-.31,1.18-.58,2.18-.82.53-.13,1.03-.26,1.49-.4.46-.14.86-.29,1.2-.46v1.95c0,.9-.31,1.62-.92,2.15-.61.54-1.41.8-2.39.8-.64,0-1.18-.14-1.6-.42ZM333.9,476.74c.87-.39,1.6-.97,2.21-1.72.61-.75,1.08-1.66,1.41-2.74.33-1.08.5-2.3.5-3.67,0-1.24-.16-2.39-.5-3.45-.33-1.06-.8-1.98-1.41-2.75-.61-.78-1.35-1.39-2.21-1.83-.87-.44-1.83-.66-2.9-.66-1.13,0-2.06.21-2.8.64-.74.43-1.37.99-1.88,1.7h-.1v-8.37h-5.23v22.93h5v-2.08h.06c.51.85,1.2,1.5,2.05,1.94.86.44,1.83.66,2.92.66s2-.2,2.87-.59ZM326.99,471.93c-.62-.85-.93-1.95-.93-3.32s.28-2.47.85-3.36c.56-.9,1.43-1.35,2.58-1.35,1.07,0,1.87.43,2.42,1.29.55.85.82,1.99.82,3.4s-.27,2.56-.82,3.39c-.55.82-1.33,1.23-2.36,1.23-1.09,0-1.95-.42-2.57-1.27Z"/>
</svg>