<?xml version="1.0" encoding="UTF-8"?>
<svg id="Capa_2" data-name="Capa 2" xmlns="http://www.w3.org/2000/svg" viewBox="0 0 956.76 72.06">
  <defs>
    <style>
      .cls-1 {
        stroke: #ffcb05;
      }

      .cls-1, .cls-2, .cls-3, .cls-4 {
        fill: none;
        stroke-linecap: round;
        stroke-miterlimit: 10;
        stroke-width: 4px;
      }

      .cls-5 {
        fill: #ffcb05;
      }

      .cls-2 {
        stroke: #fa0;
      }

      .cls-3 {
        stroke: #b9bece;
      }

      .cls-6 {
        fill: #fa0;
      }

      .cls-4 {
        stroke: #3c3a3c;
      }

      .cls-7 {
        fill: #b9bece;
      }
    </style>
  </defs>
  <g id="_4" data-name="4">
    <g>
      <path class="cls-2" d="M471.07,42.74h-67.56"/>
      <line class="cls-4" x1="167.96" y1="42.74" x2="196.31" y2="42.74"/>
      <line class="cls-2" x1="407.36" y1="68.65" x2="464.16" y2="68.65"/>
      <line class="cls-1" x1="219.56" y1="42.74" x2="332.94" y2="42.74"/>
      <rect class="cls-6" x="203.54" y="38.34" width="6.81" height="6.81" rx="3.41" ry="3.41" transform="translate(250.06 -164.92) rotate(90.38)"/>
      <line class="cls-2" x1="219.56" y1="42.74" x2="263.83" y2="42.74"/>
      <rect class="cls-7" x="338.83" y="38.34" width="6.81" height="6.81" rx="3.41" ry="3.41" transform="translate(386.25 -300.21) rotate(90.38)"/>
      <rect class="cls-7" x="349.07" y="38.34" width="6.81" height="6.81" rx="3.41" ry="3.41" transform="translate(396.56 -310.45) rotate(90.38)"/>
      <line class="cls-4" x1="783.12" y1="68.65" x2="754.78" y2="68.65"/>
      <line class="cls-1" x1="78.32" y1="16.6" x2="49.97" y2="16.6"/>
      <line class="cls-1" x1="74.15" y1="55.63" x2="45.8" y2="55.63"/>
      <line class="cls-1" x1="605.47" y1="68.65" x2="492.08" y2="68.65"/>
      <rect class="cls-6" x="614.48" y="65.25" width="6.81" height="6.81" rx="3.41" ry="3.41" transform="translate(682.43 -549.67) rotate(89.62)"/>
      <line class="cls-2" x1="605.27" y1="68.65" x2="561" y2="68.65"/>
      <rect class="cls-7" x="478.98" y="65.25" width="6.81" height="6.81" rx="3.41" ry="3.41" transform="translate(547.83 -414.17) rotate(89.62)"/>
      <rect class="cls-7" x="468.74" y="65.25" width="6.81" height="6.81" rx="3.41" ry="3.41" transform="translate(537.65 -403.93) rotate(89.62)"/>
      <line class="cls-3" x1="669.08" y1="68.65" x2="725.77" y2="68.65"/>
      <line class="cls-2" x1="632.66" y1="68.65" x2="661" y2="68.65"/>
      <rect class="cls-6" x="731.66" y="65.25" width="6.81" height="6.81" rx="3.41" ry="3.41" transform="translate(808.6 -665.94) rotate(90.38)"/>
      <rect class="cls-6" x="741.9" y="65.25" width="6.81" height="6.81" rx="3.41" ry="3.41" transform="translate(818.91 -676.18) rotate(90.38)"/>
      <line class="cls-2" x1="25.33" y1="29.59" x2="91.13" y2="29.59"/>
      <line class="cls-1" x1="151.81" y1="42.61" x2="123.46" y2="42.61"/>
      <line class="cls-1" x1="216.74" y1="29.59" x2="103.35" y2="29.59"/>
      <rect class="cls-6" x="225.95" y="26.19" width="6.81" height="6.81" rx="3.41" ry="3.41" transform="translate(257.42 -199.96) rotate(89.62)"/>
      <line class="cls-2" x1="216.74" y1="29.59" x2="172.46" y2="29.59"/>
      <rect class="cls-7" x="10.24" y="26.19" width="6.81" height="6.81" rx="3.41" ry="3.41" transform="translate(43.14 15.75) rotate(89.62)"/>
      <rect class="cls-7" x="0" y="26.19" width="6.81" height="6.81" rx="3.41" ry="3.41" transform="translate(32.97 25.99) rotate(89.62)"/>
      <line class="cls-3" x1="39.76" y1="42.61" x2="94.46" y2="42.61"/>
      <line class="cls-1" x1="2" y1="42.61" x2="30.35" y2="42.61"/>
      <rect class="cls-6" x="100.34" y="39.2" width="6.81" height="6.81" rx="3.41" ry="3.41" transform="translate(147.05 -60.85) rotate(90.38)"/>
      <rect class="cls-6" x="110.58" y="39.2" width="6.81" height="6.81" rx="3.41" ry="3.41" transform="translate(157.36 -71.09) rotate(90.38)"/>
      <g>
        <line class="cls-2" x1="168.67" y1="68.79" x2="253.71" y2="68.79"/>
        <rect class="cls-6" x="270.73" y="65.38" width="6.46" height="6.46" rx="3.23" ry="3.23" transform="translate(344.38 -204.89) rotate(90.38)"/>
        <rect class="cls-6" x="260.85" y="65.31" width="6.46" height="6.46" rx="3.23" ry="3.23" transform="translate(334.37 -195.08) rotate(90.38)"/>
        <line class="cls-1" x1="135.45" y1="68.79" x2="160.26" y2="68.79"/>
      </g>
      <line class="cls-1" x1="203.08" y1="68.79" x2="228.6" y2="68.79"/>
      <g>
        <line class="cls-1" x1="717.59" y1="42.59" x2="802.63" y2="42.59"/>
        <rect class="cls-7" x="819.66" y="39.18" width="6.46" height="6.46" rx="3.23" ry="3.23" transform="translate(870.76 -780.18) rotate(90.38)"/>
        <rect class="cls-7" x="809.78" y="39.11" width="6.46" height="6.46" rx="3.23" ry="3.23" transform="translate(860.74 -770.37) rotate(90.38)"/>
        <line class="cls-2" x1="684.38" y1="42.59" x2="709.19" y2="42.59"/>
      </g>
      <line class="cls-3" x1="267.74" y1="55.76" x2="225.63" y2="55.76"/>
      <line class="cls-2" x1="315.12" y1="55.58" x2="280.27" y2="55.58"/>
      <line class="cls-1" x1="590.06" y1="3.41" x2="555.21" y2="3.41"/>
      <line class="cls-3" x1="447.29" y1="55.58" x2="333.9" y2="55.58"/>
      <line class="cls-1" x1="393.91" y1="55.58" x2="333.9" y2="55.58"/>
      <rect class="cls-5" x="454.44" y="52.18" width="6.81" height="6.81" rx="3.41" ry="3.41" transform="translate(510.38 -402.62) rotate(89.62)"/>
      <rect class="cls-5" x="99.3" y="0" width="6.81" height="6.81" rx="3.41" ry="3.41" transform="translate(105.42 -99.32) rotate(89.62)"/>
      <rect class="cls-5" x="538.76" y="0" width="6.81" height="6.81" rx="3.41" ry="3.41" transform="translate(541.97 -538.77) rotate(89.62)"/>
      <rect class="cls-5" x="212.35" y="52.36" width="6.81" height="6.81" rx="3.41" ry="3.41" transform="translate(270.08 -160.36) rotate(89.62)"/>
      <line class="cls-2" x1="564.31" y1="29.74" x2="479.27" y2="29.74"/>
      <line class="cls-3" x1="624.7" y1="29.74" x2="573.97" y2="29.74"/>
      <rect class="cls-5" x="630.5" y="25.96" width="6.81" height="6.81" rx="3.41" ry="3.41" transform="translate(659.06 -604.72) rotate(89.62)"/>
      <line class="cls-1" x1="565.16" y1="29.74" x2="536.81" y2="29.74"/>
      <line class="cls-2" x1="624.68" y1="29.74" x2="605.3" y2="29.74"/>
      <line class="cls-2" x1="566.08" y1="16.72" x2="509.39" y2="16.72"/>
      <line class="cls-4" x1="131.48" y1="16.6" x2="88.08" y2="16.6"/>
      <g>
        <line class="cls-1" x1="576.54" y1="42.64" x2="503.69" y2="42.64"/>
        <rect class="cls-6" x="583.72" y="38.97" width="6.81" height="6.81" rx="3.41" ry="3.41" transform="translate(625.6 -545.02) rotate(89.62)"/>
        <rect class="cls-6" x="594.57" y="38.97" width="6.81" height="6.81" rx="3.41" ry="3.41" transform="translate(636.38 -555.87) rotate(89.62)"/>
      </g>
      <line class="cls-1" x1="901.46" y1="42.47" x2="844.77" y2="42.47"/>
      <rect class="cls-5" x="901.29" y="0" width="6.81" height="6.81" rx="3.41" ry="3.41" transform="translate(902.09 -901.3) rotate(89.62)"/>
      <rect class="cls-5" x="912.15" y="0" width="6.81" height="6.81" rx="3.41" ry="3.41" transform="translate(912.87 -912.15) rotate(89.62)"/>
      <line class="cls-1" x1="947.44" y1="68.65" x2="890.74" y2="68.65"/>
      <rect class="cls-6" x="901.29" y="26.33" width="6.81" height="6.81" rx="3.41" ry="3.41" transform="translate(928.43 -875.14) rotate(89.62)"/>
      <rect class="cls-6" x="789.93" y="65.25" width="6.81" height="6.81" rx="3.41" ry="3.41" transform="translate(856.71 -725.12) rotate(89.62)"/>
      <rect class="cls-7" x="489.22" y="37.95" width="6.81" height="6.81" rx="3.41" ry="3.41" transform="translate(530.71 -451.54) rotate(89.62)"/>
      <g>
        <line class="cls-3" x1="479.3" y1="28.81" x2="471.51" y2="41.54"/>
        <rect class="cls-5" x="468.11" y="38.2" width="6.81" height="6.81" rx="3.41" ry="3.41" transform="translate(509.99 -430.17) rotate(89.62)"/>
        <rect class="cls-5" x="475.72" y="25.79" width="6.81" height="6.81" rx="3.41" ry="3.41" transform="translate(505.14 -450.12) rotate(89.62)"/>
      </g>
      <path class="cls-1" d="M775.71,29.74h-67.56"/>
      <line class="cls-1" x1="840.52" y1="16.75" x2="783.83" y2="16.75"/>
      <g>
        <line class="cls-2" x1="784.27" y1="15.85" x2="776.48" y2="28.58"/>
        <rect class="cls-7" x="773.08" y="25.24" width="6.81" height="6.81" rx="3.41" ry="3.41" transform="translate(799.97 -748.01) rotate(89.62)"/>
        <rect class="cls-7" x="780.69" y="12.83" width="6.81" height="6.81" rx="3.41" ry="3.41" transform="translate(795.12 -767.96) rotate(89.62)"/>
      </g>
      <line class="cls-2" x1="894.58" y1="29.74" x2="833.09" y2="29.74"/>
      <line class="cls-3" x1="823.49" y1="29.74" x2="794.16" y2="29.74"/>
      <line class="cls-4" x1="882.02" y1="68.65" x2="852.69" y2="68.65"/>
      <line class="cls-3" x1="606.7" y1="42.37" x2="648.81" y2="42.37"/>
      <line class="cls-3" x1="769.57" y1="55.33" x2="822.43" y2="55.33"/>
      <line class="cls-2" x1="623.46" y1="55.33" x2="736.84" y2="55.33"/>
      <line class="cls-1" x1="696.53" y1="55.33" x2="738.51" y2="55.33"/>
      <rect class="cls-5" x="610.19" y="52.38" width="6.81" height="6.81" rx="3.41" ry="3.41" transform="translate(673.45 -557.43) rotate(90.38)"/>
      <g>
        <rect class="cls-5" x="755.83" y="52.13" width="6.46" height="6.46" rx="3.23" ry="3.23" transform="translate(819.46 -703.32) rotate(90.38)"/>
        <rect class="cls-5" x="745.95" y="52.06" width="6.46" height="6.46" rx="3.23" ry="3.23" transform="translate(809.45 -693.51) rotate(90.38)"/>
      </g>
      <line class="cls-3" x1="175.88" y1="16.6" x2="190.06" y2="16.6"/>
      <line class="cls-3" x1="264.47" y1="29.72" x2="307.87" y2="29.72"/>
      <line class="cls-1" x1="254.74" y1="29.72" x2="240.56" y2="29.72"/>
      <line class="cls-1" x1="577.89" y1="16.72" x2="592.06" y2="16.72"/>
      <line class="cls-1" x1="582.64" y1="55.4" x2="596.82" y2="55.4"/>
      <line class="cls-4" x1="659.53" y1="42.37" x2="673.7" y2="42.37"/>
      <line class="cls-2" x1="708.35" y1="29.74" x2="722.52" y2="29.74"/>
      <line class="cls-3" x1="852.73" y1="16.75" x2="866.9" y2="16.75"/>
      <line class="cls-2" x1="827.37" y1="16.75" x2="841.55" y2="16.75"/>
      <path class="cls-1" d="M114.42,68.79H46.86"/>
      <line class="cls-1" x1="179.65" y1="55.76" x2="122.95" y2="55.76"/>
      <g>
        <line class="cls-2" x1="122.81" y1="54.91" x2="115.02" y2="67.65"/>
        <rect class="cls-7" x="111.62" y="64.31" width="6.81" height="6.81" rx="3.41" ry="3.41" transform="translate(181.97 -47.76) rotate(89.62)"/>
        <rect class="cls-7" x="119.23" y="51.89" width="6.81" height="6.81" rx="3.41" ry="3.41" transform="translate(177.12 -67.71) rotate(89.62)"/>
      </g>
      <line class="cls-2" x1="47.06" y1="68.79" x2="61.23" y2="68.79"/>
      <line class="cls-3" x1="190.06" y1="55.91" x2="204.23" y2="55.91"/>
      <rect class="cls-5" x="162.95" y="13.19" width="6.81" height="6.81" rx="3.41" ry="3.41" transform="translate(181.85 -149.87) rotate(89.62)"/>
      <line class="cls-2" x1="142.66" y1="16.6" x2="156.83" y2="16.6"/>
      <line class="cls-2" x1="924.62" y1="3.23" x2="938.79" y2="3.23"/>
      <line class="cls-1" x1="908.53" y1="55.33" x2="866.42" y2="55.33"/>
      <rect class="cls-5" x="853.14" y="51.92" width="6.81" height="6.81" rx="3.41" ry="3.41" transform="translate(906.18 -801.57) rotate(89.62)"/>
      <line class="cls-2" x1="830.85" y1="55.33" x2="845.02" y2="55.33"/>
      <line class="cls-2" x1="937.18" y1="42.75" x2="951.36" y2="42.75"/>
      <line class="cls-2" x1="81" y1="3.41" x2="95.17" y2="3.41"/>
      <line class="cls-4" x1="30.98" y1="55.63" x2="2.64" y2="55.63"/>
      <line class="cls-1" x1="403.76" y1="42.74" x2="417.94" y2="42.74"/>
      <rect class="cls-5" x="527.06" y="0" width="6.81" height="6.81" rx="3.41" ry="3.41" transform="translate(530.35 -527.07) rotate(89.62)"/>
      <line class="cls-3" x1="3.74" y1="68.79" x2="32.08" y2="68.79"/>
      <line class="cls-2" x1="86.17" y1="55.63" x2="100.34" y2="55.63"/>
      <line class="cls-3" x1="916.48" y1="55.33" x2="954.76" y2="55.33"/>
      <line class="cls-3" x1="916.48" y1="29.81" x2="954.76" y2="29.81"/>
      <line class="cls-3" x1="288.8" y1="68.79" x2="327.08" y2="68.79"/>
      <line class="cls-4" x1="358.46" y1="68.79" x2="396.74" y2="68.79"/>
      <line class="cls-4" x1="877.99" y1="16.75" x2="903.5" y2="16.75"/>
      <line class="cls-2" x1="834.76" y1="42.75" x2="860.28" y2="42.75"/>
      <line class="cls-1" x1="913.79" y1="42.75" x2="926.55" y2="42.75"/>
      <line class="cls-1" x1="337.85" y1="68.79" x2="350.61" y2="68.79"/>
      <line class="cls-4" x1="380.14" y1="42.61" x2="392.9" y2="42.61"/>
      <line class="cls-1" x1="113.29" y1="3.41" x2="126.04" y2="3.41"/>
      <line class="cls-1" x1="834.76" y1="3.41" x2="873.04" y2="3.41"/>
      <line class="cls-1" x1="916.33" y1="16.75" x2="954.61" y2="16.75"/>
      <line class="cls-4" x1="137.69" y1="3.41" x2="175.97" y2="3.41"/>
      <line class="cls-3" x1="883.82" y1="3.41" x2="896.58" y2="3.41"/>
      <line class="cls-4" x1="542.83" y1="55.4" x2="568.35" y2="55.4"/>
      <line class="cls-1" x1="471.68" y1="55.58" x2="509.96" y2="55.58"/>
      <line class="cls-1" x1="805.6" y1="68.65" x2="843.87" y2="68.65"/>
      <g>
        <circle class="cls-6" cx="521.42" cy="55.58" r="3.24"/>
        <circle class="cls-6" cx="531.37" cy="55.58" r="3.24"/>
      </g>
      <line class="cls-2" x1="539.77" y1="42.83" x2="520.4" y2="42.83"/>
      <line class="cls-2" x1="762.1" y1="42.75" x2="742.72" y2="42.75"/>
      <line class="cls-2" x1="324.8" y1="42.75" x2="305.43" y2="42.75"/>
      <line class="cls-2" x1="133.15" y1="29.59" x2="113.78" y2="29.59"/>
    </g>
  </g>
</svg>